<?xml version="1.0" encoding="utf-8"?>
<!-- Generator: Adobe Illustrator 19.2.1, SVG Export Plug-In . SVG Version: 6.00 Build 0)  -->
<svg version="1.1" id="Layer_1" xmlns="http://www.w3.org/2000/svg" xmlns:xlink="http://www.w3.org/1999/xlink" x="0px" y="0px"
	 viewBox="0 0 64 64" style="enable-background:new 0 0 64 64;" xml:space="preserve">
<style type="text/css">
	.st0{fill:#333333;}
</style>
<g>
	<path class="st0" d="M9.2,23.7C4.7,23.7,1,27.4,1,32s3.7,8.3,8.3,8.3s8.3-3.7,8.3-8.3S13.8,23.7,9.2,23.7z M9.2,38.2
		C5.8,38.2,3,35.4,3,32s2.8-6.2,6.2-6.2s6.2,2.8,6.2,6.2S12.7,38.2,9.2,38.2z"/>
	<path class="st0" d="M54.8,23.7c-4.6,0-8.3,3.7-8.3,8.3s3.7,8.3,8.3,8.3S63,36.6,63,32S59.3,23.7,54.8,23.7z M54.8,38.2
		c-3.4,0-6.2-2.8-6.2-6.2s2.8-6.2,6.2-6.2S61,28.6,61,32S58.2,38.2,54.8,38.2z"/>
	<path class="st0" d="M32,23.7c-4.6,0-8.3,3.7-8.3,8.3s3.7,8.3,8.3,8.3s8.3-3.7,8.3-8.3S36.6,23.7,32,23.7z M32,38.2
		c-3.4,0-6.2-2.8-6.2-6.2s2.8-6.2,6.2-6.2s6.2,2.8,6.2,6.2S35.4,38.2,32,38.2z"/>
</g>
</svg>
