<?xml version="1.0" encoding="utf-8"?>
<!-- Generator: Adobe Illustrator 19.2.1, SVG Export Plug-In . SVG Version: 6.00 Build 0)  -->
<svg version="1.1" id="Layer_1" xmlns="http://www.w3.org/2000/svg" xmlns:xlink="http://www.w3.org/1999/xlink" x="0px" y="0px"
	 viewBox="0 0 64 64" style="enable-background:new 0 0 64 64;" xml:space="preserve">
<style type="text/css">
	.st0{fill:#333333;}
</style>
<g>
	<path class="st0" d="M59.2,41.5c0.5-2.1,0.7-4.2,0.7-6.3c0-9.8-5-18.7-13.3-23.8c-0.5-0.3-1.2-0.2-1.5,0.4
		c-0.3,0.5-0.2,1.2,0.4,1.5c7.7,4.7,12.3,13,12.3,22c0,1.9-0.2,3.7-0.6,5.5c-0.5-0.1-1-0.2-1.5-0.2c-4.1,0-7.5,3.4-7.5,7.5
		s3.4,7.5,7.5,7.5s7.5-3.4,7.5-7.5C63.2,45.3,61.6,42.8,59.2,41.5z M55.6,53.5c-3,0-5.4-2.4-5.4-5.4s2.4-5.4,5.4-5.4
		s5.4,2.4,5.4,5.4S58.6,53.5,55.6,53.5z"/>
	<path class="st0" d="M41.9,59.1c-3.1,1.3-6.4,2-9.9,2c-6.9,0-13.5-2.8-18.3-7.6c1.3-1.4,2.2-3.2,2.2-5.3c0-4.1-3.4-7.5-7.5-7.5
		S0.8,44,0.8,48.1s3.4,7.5,7.5,7.5c1.3,0,2.6-0.3,3.6-0.9c5.2,5.4,12.5,8.5,20,8.5c3.7,0,7.3-0.7,10.7-2.1c0.5-0.2,0.8-0.9,0.6-1.4
		C43,59.1,42.4,58.8,41.9,59.1z M3,48.1c0-3,2.4-5.4,5.4-5.4s5.4,2.4,5.4,5.4s-2.4,5.4-5.4,5.4S3,51.1,3,48.1z"/>
	<path class="st0" d="M5.1,34.4C5.2,34.4,5.2,34.4,5.1,34.4c0.6,0,1.1-0.4,1.1-1C7,22.5,14.4,13.5,24.8,10.5
		c0.9,3.1,3.8,5.4,7.2,5.4c4.1,0,7.5-3.4,7.5-7.5S36.1,0.8,32,0.8s-7.5,3.4-7.5,7.5C13.1,11.5,5,21.4,4.1,33.2
		C4.1,33.8,4.5,34.3,5.1,34.4z M32,3c3,0,5.4,2.4,5.4,5.4S35,13.7,32,13.7s-5.4-2.4-5.4-5.4S29,3,32,3z"/>
</g>
</svg>
