<?xml version="1.0" standalone="no"?>
<!DOCTYPE svg PUBLIC "-//W3C//DTD SVG 1.1//EN" "http://www.w3.org/Graphics/SVG/1.1/DTD/svg11.dtd" >
<svg xmlns="http://www.w3.org/2000/svg">
<metadata>Generated by IcoMoon</metadata>
<defs>
<font id="fluzfluz" horiz-adv-x="1024">
<font-face units-per-em="1024" ascent="960" descent="-64" />
<missing-glyph horiz-adv-x="1024" />
<glyph unicode="&#x20;" horiz-adv-x="512" d="" />
<glyph unicode="&#xe900;" d="M512 892.8c-248 0-448-200-448-448s200-448 448-448 448 200 448 448-200 448-448 448zM448 233.6l-211.2 211.2 84.8 84.8 126.4-126.4 254.4 252.8 84.8-84.8-339.2-337.6z" />
<glyph unicode="&#xe901;" d="M787.2 571.2l-339.2-337.6-211.2 211.2 84.8 84.8 126.4-126.4 254.4 252.8z" />
<glyph unicode="&#xe902;" glyph-name="tarjeta" d="M915.2 750.4h-806.4c-46.4 0-84.8-35.2-84.8-80v-448c0-43.2 38.4-80 84.8-80h804.8c46.4 0 84.8 35.2 84.8 80v449.6c0 43.2-36.8 78.4-83.2 78.4zM964.8 224c0-25.6-22.4-48-51.2-48h-804.8c-27.2 0-51.2 20.8-51.2 48v64h905.6v-64zM964.8 320h-905.6v96h905.6v-96zM964.8 448h-905.6v224c0 25.6 22.4 48 51.2 48h804.8c27.2 0 51.2-20.8 51.2-48v-224zM108.8 528h352v-32h-352v32z" />
<glyph unicode="&#xe904;" glyph-name="load" d="M353.6 174.4c-12.8 8-30.4 3.2-38.4-9.6l-62.4-108.8c-8-12.8-3.2-30.4 9.6-38.4 4.8-3.2 9.6-3.2 14.4-3.2 9.6 0 19.2 4.8 24 14.4l62.4 108.8c9.6 12.8 4.8 28.8-9.6 36.8zM761.6 878.4c-12.8 8-30.4 3.2-38.4-9.6l-62.4-108.8c-8-12.8-3.2-30.4 9.6-38.4 4.8-3.2 9.6-3.2 14.4-3.2 9.6 0 19.2 4.8 24 14.4l62.4 108.8c8 12.8 3.2 30.4-9.6 36.8zM238.4 289.6c-8 12.8-24 17.6-38.4 9.6l-108.8-62.4c-12.8-8-17.6-24-9.6-38.4 4.8-9.6 14.4-14.4 24-14.4 4.8 0 9.6 1.6 14.4 3.2l108.8 62.4c12.8 9.6 17.6 27.2 9.6 40zM942.4 697.6c-8 12.8-24 17.6-38.4 9.6l-108.8-62.4c-12.8-8-17.6-24-9.6-38.4 4.8-9.6 14.4-14.4 24-14.4 4.8 0 9.6 1.6 14.4 3.2l108.8 62.4c12.8 9.6 17.6 25.6 9.6 40zM168 475.2h-126.4c-16 0-27.2-12.8-27.2-27.2 0-16 12.8-27.2 27.2-27.2h126.4c16 0 27.2 12.8 27.2 27.2 1.6 16-11.2 27.2-27.2 27.2zM982.4 475.2h-126.4c-16 0-27.2-12.8-27.2-27.2 0-16 12.8-27.2 27.2-27.2h126.4c16 0 27.2 12.8 27.2 27.2s-12.8 27.2-27.2 27.2zM228.8 643.2l-108.8 62.4c-12.8 8-30.4 3.2-38.4-9.6s-3.2-30.4 9.6-38.4l108.8-62.4c4.8-3.2 9.6-3.2 14.4-3.2 9.6 0 19.2 4.8 24 14.4 8 12.8 3.2 30.4-9.6 36.8zM932.8 236.8l-108.8 62.4c-12.8 8-30.4 3.2-38.4-9.6s-3.2-30.4 9.6-38.4l108.8-62.4c4.8-3.2 9.6-3.2 14.4-3.2 9.6 0 19.2 4.8 24 14.4 8 12.8 3.2 28.8-9.6 36.8zM364.8 760l-62.4 108.8c-8 12.8-24 17.6-38.4 9.6-12.8-8-17.6-24-9.6-38.4l62.4-108.8c4.8-9.6 14.4-14.4 24-14.4 4.8 0 9.6 1.6 14.4 3.2 12.8 9.6 17.6 25.6 9.6 40zM771.2 54.4l-62.4 108.8c-8 12.8-24 17.6-38.4 9.6-12.8-8-17.6-24-9.6-38.4l62.4-108.8c4.8-9.6 14.4-14.4 24-14.4 4.8 0 9.6 1.6 14.4 3.2 12.8 9.6 17.6 27.2 9.6 40zM512 945.6c-16 0-27.2-12.8-27.2-27.2v-126.4c0-16 12.8-27.2 27.2-27.2 16 0 27.2 12.8 27.2 27.2v126.4c0 14.4-11.2 27.2-27.2 27.2zM512 132.8c-16 0-27.2-12.8-27.2-27.2v-126.4c0-16 12.8-27.2 27.2-27.2 16 0 27.2 12.8 27.2 27.2v126.4c0 14.4-11.2 27.2-27.2 27.2z" />
<glyph unicode="&#xe907;" glyph-name="select" d="M512 952c-278.4 0-504-225.6-504-504s225.6-504 504-504 504 225.6 504 504-225.6 504-504 504zM512 67.2c-209.6 0-380.8 171.2-380.8 380.8s171.2 380.8 380.8 380.8 380.8-171.2 380.8-380.8-171.2-380.8-380.8-380.8z" />
<glyph unicode="&#xe908;" glyph-name="transferencia" d="M107.2 467.2h350.4v-33.6h-350.4v33.6zM107.2 372.8h350.4v-33.6h-350.4v33.6zM105.6 273.6h350.4v-33.6h-350.4v33.6z" />
<glyph unicode="&#xe909;" d="M905.6 145.6h-787.2c-51.2 0-92.8 41.6-92.8 92.8v419.2c0 51.2 41.6 92.8 92.8 92.8h787.2c51.2 0 92.8-41.6 92.8-92.8v-419.2c0-51.2-41.6-92.8-92.8-92.8z" />
<glyph unicode="&#xe90a;" d="M452.069 323.009h-56.704l35.44 219.726h56.704z" />
<glyph unicode="&#xe90b;" d="M657.619 542.735c-14.176 7.088-28.352 7.088-49.616 7.088-56.704 0-99.231-28.352-99.231-70.879 0-28.352 28.352-49.616 49.616-56.704 21.264-14.176 28.352-21.264 28.352-28.352 0-14.176-21.264-21.264-35.44-21.264-21.264 0-35.44 0-56.704 14.176l-7.088 7.088-7.088-49.616c14.176-7.088 35.44-14.176 63.791-14.176 56.704 0 99.231 28.352 99.231 77.967 0 28.352-14.176 42.528-49.616 63.791-21.264 7.088-35.44 14.176-35.44 28.352 0 7.088 7.088 21.264 35.44 21.264 21.264 0 35.44-7.088 42.528-7.088h7.088l14.176 28.352z" />
<glyph unicode="&#xe90c;" d="M735.587 400.976c7.088 14.176 21.264 63.791 21.264 63.791s7.088 14.176 7.088 21.264l7.088-21.264c0 0 14.176-49.616 14.176-63.791-14.176 0-42.528 0-49.616 0v0zM806.466 542.735h-49.616c-14.176 0-21.264-7.088-28.352-21.264l-85.055-205.55h56.704c0 0 7.088 28.352 14.176 35.44 7.088 0 63.791 0 70.879 0 0-7.088 7.088-35.44 7.088-35.44h49.616l-35.44 226.814z" />
<glyph unicode="&#xe90d;" d="M345.75 542.735l-56.704-148.847-7.088 28.352c-7.088 35.44-42.528 70.879-77.967 92.143l49.616-191.374h63.791l92.143 219.726h-63.791z" />
<glyph unicode="&#xe90e;" d="M239.431 542.735h-92.143v-7.088c70.879-21.264 120.495-63.791 141.759-113.407l-28.352 106.319c0 14.176-14.176 14.176-21.264 14.176v0z" />
<glyph unicode="&#xe90f;" glyph-name="x" d="M512 948.8c-276.8 0-500.8-224-500.8-500.8s224-500.8 500.8-500.8 500.8 224 500.8 500.8-224 500.8-500.8 500.8zM664 289.6l-14.4-14.4-147.2 147.2-148.8-147.2-14.4 14.4 147.2 148.8-147.2 147.2 14.4 14.4 148.8-147.2 147.2 147.2 14.4-14.4-147.2-147.2 147.2-148.8z" />
<glyph unicode="&#xe910;" glyph-name="down" d="M796.8 574.4l-28.8 30.4-256-254.4-256 254.4-28.8-30.4 284.8-283.2z" />
<glyph unicode="&#xe911;" glyph-name="mas-2" d="M512 852.8c-224 0-404.8-180.8-404.8-404.8s180.8-404.8 404.8-404.8 404.8 180.8 404.8 404.8-180.8 404.8-404.8 404.8zM756.8 425.6h-209.6v-209.6h-57.6v209.6h-209.6v57.6h209.6v209.6h57.6v-209.6h209.6v-57.6z" />
<glyph unicode="&#xe912;" glyph-name="estadistica" d="M905.6 84.8h-756.8v756.8c0 16-12.8 30.4-30.4 30.4s-30.4-12.8-30.4-30.4v-787.2c0-16 12.8-30.4 30.4-30.4h787.2c16 0 30.4 12.8 30.4 30.4s-12.8 30.4-30.4 30.4zM438.4 200v430.4c0 16-12.8 30.4-30.4 30.4s-30.4-12.8-30.4-30.4v-430.4c0-16 12.8-30.4 30.4-30.4s30.4 12.8 30.4 30.4zM292.8 200v430.4c0 16-12.8 30.4-30.4 30.4-16 0-30.4-12.8-30.4-30.4v-430.4c0-16 12.8-30.4 30.4-30.4s30.4 12.8 30.4 30.4zM726.4 200v430.4c0 16-12.8 30.4-30.4 30.4s-30.4-12.8-30.4-30.4v-430.4c0-16 12.8-30.4 30.4-30.4s30.4 12.8 30.4 30.4zM872 200v214.4c0 16-12.8 30.4-30.4 30.4-16 0-30.4-12.8-30.4-30.4v-216c0-16 12.8-30.4 30.4-30.4 17.6 1.6 30.4 14.4 30.4 32zM582.4 200v214.4c0 16-12.8 30.4-30.4 30.4s-30.4-12.8-30.4-30.4v-216c0-16 12.8-30.4 30.4-30.4s30.4 14.4 30.4 32z" />
<glyph unicode="&#xe913;" glyph-name="cellphone" d="M721.6 948.8h-419.2c-40 0-73.6-33.6-73.6-73.6v-852.8c0-40 33.6-73.6 73.6-73.6h419.2c40 0 73.6 33.6 73.6 73.6v852.8c0 40-32 73.6-73.6 73.6zM262.4 814.4h500.8v-633.6h-500.8v633.6zM302.4 915.2h419.2c22.4 0 40-17.6 40-40v-27.2h-499.2v27.2c0 22.4 17.6 40 40 40zM721.6-19.2h-419.2c-22.4 0-40 17.6-40 40v126.4h500.8v-126.4c-1.6-22.4-19.2-40-41.6-40zM507.2 118.4c-27.2 0-49.6-22.4-49.6-49.6s22.4-49.6 49.6-49.6 49.6 22.4 49.6 49.6-22.4 49.6-49.6 49.6zM507.2 44.8c-14.4 0-25.6 11.2-25.6 25.6s11.2 25.6 25.6 25.6c14.4 0 25.6-11.2 25.6-25.6s-11.2-25.6-25.6-25.6z" />
<glyph unicode="&#xe914;" glyph-name="personal-information" d="M484.8 201.6c0 16 9.6 25.6 27.2 25.6 19.2 0 27.2-8 27.2-25.6 0-8-1.6-14.4-6.4-19.2s-11.2-6.4-20.8-6.4c-17.6 1.6-27.2 9.6-27.2 25.6zM537.6-32h-51.2v185.6h51.2v-185.6z" />
<glyph unicode="&#xe915;" glyph-name="mesages" d="M230.4-46.4c-3.2 0-4.8 0-8 1.6-4.8 3.2-8 8-8 12.8v217.6c-132.8 70.4-204.8 192-204.8 344 0 235.2 216 412.8 502.4 412.8s502.4-177.6 502.4-412.8-216-412.8-502.4-412.8c-9.6 0-19.2 0-27.2 1.6v0l-244.8-161.6c-3.2-1.6-6.4-3.2-9.6-3.2zM512 912c-268.8 0-472-164.8-472-382.4 0-100.8 33.6-238.4 198.4-320 4.8-3.2 8-8 8-14.4v-198.4l224 148.8c3.2 1.6 6.4 3.2 9.6 3.2h6.4c8 0 17.6-1.6 25.6-1.6 268.8 0 472 164.8 472 382.4s-203.2 382.4-472 382.4zM740.8 657.6h-457.6c-8 0-16 6.4-16 16 0 8 6.4 16 16 16h456c8 0 16-6.4 16-16s-6.4-16-14.4-16zM740.8 508.8h-457.6c-8 0-16 6.4-16 16 0 8 6.4 16 16 16h456c8 0 16-6.4 16-16s-6.4-16-14.4-16zM512 360h-228.8c-8 0-16 6.4-16 16 0 8 6.4 16 16 16h228.8c8 0 16-6.4 16-16 0-8-8-16-16-16z" />
<glyph unicode="&#xe916;" glyph-name="negative" d="M512 948.8c-252.8 0-459.2-204.8-459.2-459.2 0-14.4 0-28.8 1.6-41.6 20.8-233.6 217.6-417.6 457.6-417.6s436.8 184 457.6 417.6c1.6 12.8 1.6 27.2 1.6 41.6 0 254.4-206.4 459.2-459.2 459.2zM742.4 468.8h-459.2v41.6h459.2v-41.6z" />
<glyph unicode="&#xe917;" glyph-name="vault" d="M886.4 603.2l-139.2-1.6-30.4 286.4c-1.6 20.8-14.4 38.4-33.6 48s-40 9.6-57.6-1.6l-587.2-339.2c-1.6-1.6-3.2-3.2-3.2-3.2-3.2-3.2-4.8-8-4.8-12.8l62.4-606.4c1.6-8 8-16 17.6-16l830.4 6.4c1.6 0 3.2 0 6.4 0 14.4 1.6 28.8 8 38.4 19.2 11.2 12.8 17.6 30.4 14.4 46.4l-52.8 520c-3.2 32-30.4 54.4-60.8 54.4zM473.6 600l225.6 131.2 12.8-128-238.4-3.2zM644.8 737.6l-238.4-139.2-131.2-1.6 345.6 200c6.4 3.2 11.2 1.6 12.8 0s6.4-4.8 8-11.2l3.2-48zM643.2 905.6c8 4.8 17.6 4.8 25.6 0s12.8-11.2 14.4-20.8l12.8-116.8-19.2-11.2-3.2 35.2c-1.6 16-11.2 30.4-25.6 36.8-14.4 8-32 6.4-44.8-1.6l-396.8-228.8h-94.4l531.2 307.2zM966.4 25.6c0-8-1.6-14.4-6.4-20.8s-12.8-9.6-19.2-9.6l-816-4.8-59.2 572.8 820.8 6.4c14.4 0 25.6-9.6 27.2-24l52.8-520zM830.4 345.6c-33.6-3.2-57.6-35.2-54.4-72s33.6-62.4 67.2-59.2c33.6 3.2 57.6 35.2 54.4 72-3.2 35.2-33.6 62.4-67.2 59.2zM840 248c-14.4-1.6-28.8 11.2-30.4 28.8s9.6 33.6 24 35.2c14.4 1.6 28.8-11.2 30.4-28.8 1.6-19.2-9.6-33.6-24-35.2z" />
<glyph unicode="&#xe918;" glyph-name="camera" d="M678.4 758.4h-332.8c-78.4 0-144-64-144-144v-332.8c0-78.4 64-144 144-144h332.8c78.4 0 144 64 144 144v332.8c0 78.4-65.6 144-144 144zM796.8 281.6c0-64-52.8-118.4-118.4-118.4h-332.8c-64 0-118.4 52.8-118.4 118.4v332.8c0 64 52.8 118.4 118.4 118.4h332.8c64 0 118.4-52.8 118.4-118.4v-332.8zM512 620.8c-96 0-172.8-76.8-172.8-172.8s76.8-172.8 172.8-172.8 172.8 76.8 172.8 172.8-76.8 172.8-172.8 172.8zM512 307.2c-78.4 0-140.8 62.4-140.8 140.8s62.4 140.8 140.8 140.8 140.8-62.4 140.8-140.8-62.4-140.8-140.8-140.8zM700.8 667.2c-14.4 0-25.6-11.2-25.6-25.6s11.2-25.6 25.6-25.6c14.4 0 25.6 11.2 25.6 25.6s-11.2 25.6-25.6 25.6z" />
<glyph unicode="&#xe919;" glyph-name="home" d="M1004.8 491.2l-492.8 459.2-492.8-459.2c-6.4-6.4-8-17.6-1.6-24s17.6-8 24-1.6l57.6 52.8v-572.8h825.6v574.4l57.6-52.8c3.2-3.2 8-4.8 11.2-4.8 4.8 0 9.6 1.6 12.8 4.8 6.4 8 6.4 17.6-1.6 24zM409.6-19.2v275.2c0 57.6 46.4 102.4 102.4 102.4s102.4-46.4 102.4-102.4v-275.2h-204.8zM889.6-19.2h-240v275.2c0 75.2-62.4 137.6-137.6 137.6s-137.6-62.4-137.6-137.6v-275.2h-240v571.2l377.6 350.4 377.6-352v-569.6z" />
<glyph unicode="&#xe91a;" glyph-name="up-arrow" d="M467.2 187.2v315.2h-129.6l174.4 206.4 172.8-206.4h-129.6v-315.2h-88z" />
<glyph unicode="&#xe91b;" glyph-name="mas-3" d="M147.2 580.8c-72 0-131.2-59.2-131.2-132.8s59.2-132.8 132.8-132.8 132.8 59.2 132.8 132.8-60.8 132.8-134.4 132.8zM147.2 348.8c-54.4 0-99.2 44.8-99.2 99.2s44.8 99.2 99.2 99.2 99.2-44.8 99.2-99.2-43.2-99.2-99.2-99.2zM876.8 580.8c-73.6 0-132.8-59.2-132.8-132.8s59.2-132.8 132.8-132.8 131.2 59.2 131.2 132.8-59.2 132.8-131.2 132.8zM876.8 348.8c-54.4 0-99.2 44.8-99.2 99.2s44.8 99.2 99.2 99.2 99.2-44.8 99.2-99.2-44.8-99.2-99.2-99.2zM512 580.8c-73.6 0-132.8-59.2-132.8-132.8s59.2-132.8 132.8-132.8 132.8 59.2 132.8 132.8-59.2 132.8-132.8 132.8zM512 348.8c-54.4 0-99.2 44.8-99.2 99.2s44.8 99.2 99.2 99.2 99.2-44.8 99.2-99.2-44.8-99.2-99.2-99.2z" />
<glyph unicode="&#xe91c;" glyph-name="network" d="M947.2 296c8 33.6 11.2 67.2 11.2 100.8 0 156.8-80 299.2-212.8 380.8-8 4.8-19.2 3.2-24-6.4-4.8-8-3.2-19.2 6.4-24 123.2-75.2 196.8-208 196.8-352 0-30.4-3.2-59.2-9.6-88-8 1.6-16 3.2-24 3.2-65.6 0-120-54.4-120-120s54.4-120 120-120 120 54.4 120 120c0 44.8-25.6 84.8-64 105.6zM889.6 104c-48 0-86.4 38.4-86.4 86.4s38.4 86.4 86.4 86.4 86.4-38.4 86.4-86.4-38.4-86.4-86.4-86.4zM670.4 14.4c-49.6-20.8-102.4-32-158.4-32-110.4 0-216 44.8-292.8 121.6 20.8 22.4 35.2 51.2 35.2 84.8 0 65.6-54.4 120-120 120s-121.6-52.8-121.6-118.4 54.4-120 120-120c20.8 0 41.6 4.8 57.6 14.4 83.2-86.4 200-136 320-136 59.2 0 116.8 11.2 171.2 33.6 8 3.2 12.8 14.4 9.6 22.4-3.2 9.6-12.8 14.4-20.8 9.6zM48 190.4c0 48 38.4 86.4 86.4 86.4s86.4-38.4 86.4-86.4-38.4-86.4-86.4-86.4-86.4 38.4-86.4 86.4zM81.6 409.6c1.6 0 1.6 0 0 0 9.6 0 17.6 6.4 17.6 16 12.8 174.4 131.2 318.4 297.6 366.4 14.4-49.6 60.8-86.4 115.2-86.4 65.6 0 120 54.4 120 120s-54.4 121.6-120 121.6-120-54.4-120-120c-182.4-51.2-312-209.6-326.4-398.4 0-9.6 6.4-17.6 16-19.2zM512 912c48 0 86.4-38.4 86.4-86.4s-38.4-84.8-86.4-84.8-86.4 38.4-86.4 86.4 38.4 84.8 86.4 84.8z" />
<glyph unicode="&#xe91d;" d="M185.6 59.2c6.4 6.4 14.4 12.8 24 17.6-8-4.8-16-11.2-24-17.6z" />
<glyph unicode="&#xe91e;" d="M324.8 646.4c0 0-8 57.6 35.2 102.4-41.6-44.8-33.6-100.8-33.6-100.8v-97.6c0 0-1.6-1.6-1.6-1.6v97.6z" />
<glyph unicode="&#xe91f;" d="M332.8 403.2c16-73.6 60.8-126.4 60.8-126.4v-62.4c0-9.6-1.6-19.2-6.4-27.2 3.2 8 4.8 16 4.8 25.6v62.4c0 0-43.2 52.8-60.8 126.4-14.4 9.6-24 25.6-24 43.2v67.2c0 8 1.6 14.4 6.4 20.8-3.2-6.4-4.8-12.8-4.8-19.2v-67.2c0-19.2 9.6-33.6 24-43.2z" />
<glyph unicode="&#xe920;" d="M702.4 409.6c-6.4-6.4-12.8-9.6-20.8-12.8 0 0 0 0 0 1.6 8 1.6 14.4 6.4 20.8 11.2z" />
<glyph unicode="&#xe921;" d="M1020.8 440c-3.2-153.6-73.6-289.6-182.4-380.8-8 6.4-17.6 12.8-27.2 17.6l-161.6 81.6c-20.8 11.2-33.6 32-33.6 56v64c4.8 4.8 11.2 11.2 16 19.2 1.6 3.2 4.8 6.4 6.4 9.6 1.6 1.6 3.2 4.8 3.2 6.4 1.6 3.2 3.2 4.8 4.8 8s4.8 6.4 6.4 11.2c11.2 20.8 20.8 43.2 28.8 65.6 8 3.2 14.4 6.4 20.8 12.8 1.6 1.6 3.2 3.2 4.8 4.8 8 8 12.8 19.2 12.8 32v67.2c0 14.4-8 27.2-17.6 36.8v97.6c0 0 20.8 152-187.2 152-76.8 0-123.2-20.8-150.4-48-1.6-1.6-3.2-3.2-4.8-4.8-41.6-44.8-33.6-100.8-33.6-100.8v-97.6c0 0-1.6-1.6-1.6-1.6-4.8-4.8-9.6-9.6-11.2-16-3.2-6.4-4.8-12.8-4.8-19.2v-67.2c0-19.2 9.6-33.6 24-43.2 16-73.6 60.8-126.4 60.8-126.4v-62.4c0-9.6-1.6-19.2-6.4-27.2-1.6-1.6-1.6-4.8-3.2-6.4 0 0-1.6-1.6-1.6-1.6-1.6-1.6-1.6-3.2-3.2-4.8-4.8-6.4-11.2-11.2-17.6-16l-152-83.2c-8-4.8-16-11.2-24-17.6-112 96-184 238.4-180.8 396.8 4.8 281.6 236.8 505.6 515.2 500.8 280-4.8 504-236.8 500.8-515.2z" />
<glyph unicode="&#xe922;" d="M702.4 409.6c-6.4-6.4-12.8-9.6-20.8-12.8 0 0 0 0 0 1.6 8 1.6 14.4 6.4 20.8 11.2z" />
<glyph unicode="&#xe923;" glyph-name="down-arrow" d="M556.8 708.8v-315.2h129.6l-174.4-206.4-172.8 206.4h129.6v315.2h88z" />
<glyph unicode="&#xe924;" glyph-name="redenciones" d="M0 737.6v-580.8h1024v580.8h-1024zM992 192h-960v512h960v-512zM144 243.2v-17.6h736v17.6c0 38.4 28.8 68.8 64 68.8h16v272h-16c-35.2 0-64 30.4-64 68.8v17.6h-736v-17.6c0-38.4-28.8-68.8-64-68.8h-16v-273.6h16c35.2 1.6 64-28.8 64-67.2zM96 552c40 8 72 41.6 78.4 83.2h675.2c6.4-43.2 38.4-76.8 78.4-83.2v-208c-40-8-72-41.6-78.4-83.2h-675.2c-6.4 43.2-38.4 76.8-78.4 83.2 0 0 0 208 0 208zM512 294.4c80 0 144 68.8 144 153.6s-64 153.6-144 153.6-144-68.8-144-153.6 64-153.6 144-153.6zM512 568c62.4 0 112-52.8 112-120s-49.6-120-112-120-112 52.8-112 120 49.6 120 112 120z" />
<glyph unicode="&#xe925;" glyph-name="star" d="M512 633.6c-102.4 0-185.6-83.2-185.6-185.6s83.2-185.6 185.6-185.6 185.6 83.2 185.6 185.6-83.2 185.6-185.6 185.6zM595.2 451.2h-4.8c-72 1.6-73.6-70.4-73.6-73.6h-8c0 3.2-3.2 73.6-73.6 73.6h-4.8v8h4.8c72 0 73.6 70.4 73.6 73.6h8c0-3.2 3.2-73.6 73.6-73.6h4.8v-8z" />
<glyph unicode="&#xe926;" glyph-name="tienda" d="M838.4 753.6h-131.2c-6.4 102.4-91.2 185.6-195.2 185.6s-188.8-83.2-193.6-185.6h-134.4l-60.8-796.8h777.6l-62.4 796.8zM512 897.6c80 0 147.2-64 152-144h-304c4.8 78.4 72 144 152 144zM224 712h579.2l54.4-712h-688l54.4 712zM360 440h315.2v-40h-315.2v40zM360 331.2h315.2v-40h-315.2v40z" />
<glyph unicode="&#xe927;" glyph-name="warning" d="M512 752c-166.4 0-304-136-304-304s136-304 304-304 304 136 304 304-137.6 304-304 304zM550.4 257.6h-75.2v75.2h75.2v-75.2zM550.4 372.8h-75.2v265.6h75.2v-265.6z" />
<glyph unicode="&#xe928;" glyph-name="Xb" d="M713.6 627.2l-17.6 17.6-179.2-179.2-179.2 179.2-17.6-17.6 179.2-179.2-179.2-179.2 17.6-17.6 179.2 179.2 179.2-179.2 17.6 17.6-179.2 179.2z" />
<glyph unicode="&#xe929;" glyph-name="left-arrow" d="M968 433.6h-912c-8 0-14.4 6.4-14.4 14.4s6.4 14.4 14.4 14.4h912c8 0 14.4-6.4 14.4-14.4s-6.4-14.4-14.4-14.4zM417.6 72c-3.2 0-8 1.6-9.6 4.8l-361.6 361.6c-3.2 3.2-4.8 6.4-4.8 9.6s1.6 8 4.8 9.6l361.6 361.6c6.4 6.4 14.4 6.4 20.8 0s6.4-14.4 0-20.8l-352-352 352-352c6.4-6.4 6.4-14.4 0-20.8-4.8 0-8-1.6-11.2-1.6z" />
<glyph unicode="&#xe92a;" glyph-name="right" d="M385.6 732.8l-30.4-28.8 254.4-256-254.4-256 30.4-28.8 283.2 284.8z" />
<glyph unicode="&#xe92b;" glyph-name="right-arrow" d="M56 462.4h912c8 0 14.4-6.4 14.4-14.4s-6.4-14.4-14.4-14.4h-912c-8 0-14.4 6.4-14.4 14.4s6.4 14.4 14.4 14.4zM606.4 824c3.2 0 8-1.6 9.6-4.8l361.6-361.6c3.2-3.2 4.8-6.4 4.8-9.6s-1.6-8-4.8-9.6l-361.6-361.6c-6.4-6.4-14.4-6.4-20.8 0s-6.4 14.4 0 20.8l352 352-352 352c-6.4 6.4-6.4 14.4 0 20.8 4.8 0 8 1.6 11.2 1.6z" />
<glyph unicode="&#xe92e;" glyph-name="document" d="M636.8 116.8v150.4h150.4z" />
<glyph unicode="&#xe92f;" glyph-name="fluz-fluz" d="M1003.2 864c-59.2 0-60.8-60.8-60.8-60.8s-1.6 60.8-60.8 60.8v0c59.2 0 60.8 60.8 60.8 60.8s1.6-60.8 60.8-60.8v0zM945.6 803.2h-6.4c0 1.6-1.6 59.2-59.2 59.2h-3.2v4.8h3.2c56 0 57.6 56 59.2 59.2h6.4c0-1.6 1.6-59.2 59.2-59.2h3.2v-6.4h-3.2c-57.6 0-59.2-56-59.2-57.6zM902.4 864c25.6-8 35.2-28.8 40-43.2 4.8 16 16 35.2 40 43.2-25.6 8-35.2 28.8-40 43.2-4.8-14.4-16-35.2-40-43.2zM755.2 864c-59.2 0-60.8-60.8-60.8-60.8s0 60.8-60.8 60.8v0c59.2 0 60.8 60.8 60.8 60.8s1.6-60.8 60.8-60.8v0zM697.6 803.2h-6.4c0 1.6-1.6 59.2-59.2 59.2h-3.2v4.8h3.2c56 0 57.6 56 59.2 59.2h6.4c0-1.6 1.6-59.2 59.2-59.2h1.6v-6.4h-3.2c-56 0-57.6-56-57.6-57.6zM654.4 864c25.6-8 35.2-28.8 40-43.2 4.8 16 16 35.2 40 43.2-25.6 8-35.2 28.8-40 43.2-4.8-14.4-14.4-35.2-40-43.2zM630.4 864c-59.2 0-60.8-60.8-60.8-60.8s0 60.8-60.8 60.8v0c59.2 0 60.8 60.8 60.8 60.8s1.6-60.8 60.8-60.8v0zM572.8 803.2h-6.4c0 1.6-1.6 59.2-59.2 59.2h-3.2v4.8h3.2c56 0 57.6 56 59.2 59.2h6.4c0-1.6 1.6-59.2 59.2-59.2h3.2v-6.4h-3.2c-56 0-59.2-56-59.2-57.6zM529.6 864c25.6-8 35.2-28.8 40-43.2 4.8 16 16 35.2 40 43.2-25.6 8-35.2 28.8-40 43.2-3.2-14.4-14.4-35.2-40-43.2zM507.2 864c-59.2 0-60.8-60.8-60.8-60.8s-1.6 60.8-60.8 60.8v0c59.2 0 60.8 60.8 60.8 60.8s1.6-60.8 60.8-60.8v0zM448 803.2h-4.8c0 1.6-1.6 59.2-59.2 59.2h-3.2v4.8h3.2c56 0 57.6 56 59.2 59.2h6.4c0-1.6 1.6-59.2 59.2-59.2h3.2v-6.4h-3.2c-57.6 0-59.2-56-60.8-57.6zM406.4 864c25.6-8 35.2-28.8 40-43.2 4.8 16 16 35.2 40 43.2-25.6 8-35.2 28.8-40 43.2-4.8-14.4-14.4-35.2-40-43.2zM353.6 864c-28.8 0-30.4-30.4-30.4-30.4s-1.6 30.4-30.4 30.4v0c28.8 0 30.4 30.4 30.4 30.4s0-30.4 30.4-30.4v0zM324.8 833.6h-6.4c0 1.6-1.6 27.2-27.2 27.2h-3.2v6.4h3.2c25.6 0 27.2 25.6 27.2 27.2h6.4c0-1.6 1.6-27.2 27.2-27.2h3.2v-4.8h-3.2c-25.6-1.6-27.2-28.8-27.2-28.8zM307.2 864c8-4.8 12.8-11.2 16-17.6 1.6 6.4 8 12.8 16 17.6-8 4.8-12.8 11.2-16 17.6-3.2-6.4-8-14.4-16-17.6zM134.4 864c-59.2 0-60.8-60.8-60.8-60.8s0 60.8-60.8 60.8v0c59.2 0 60.8 60.8 60.8 60.8s1.6-60.8 60.8-60.8v0zM76.8 803.2h-6.4c0 1.6-1.6 59.2-59.2 59.2h-3.2v4.8h3.2c56 0 57.6 56 59.2 59.2h6.4c0-1.6 1.6-59.2 59.2-59.2h3.2v-6.4h-4.8c-54.4 0-56-56-57.6-57.6zM33.6 864c25.6-8 35.2-28.8 40-43.2 4.8 16 16 35.2 40 43.2-24 8-35.2 27.2-40 43.2-3.2-14.4-14.4-35.2-40-43.2zM972.8 745.6c-28.8 0-30.4-30.4-30.4-30.4s-1.6 30.4-30.4 30.4v0c28.8 0 30.4 30.4 30.4 30.4s1.6-30.4 30.4-30.4v0zM939.2 715.2c0 1.6-1.6 27.2-27.2 27.2h-3.2v6.4h3.2c25.6 0 27.2 25.6 27.2 27.2h6.4c0-1.6 1.6-27.2 27.2-27.2h3.2v-6.4h-3.2c-25.6 0-27.2-25.6-27.2-27.2h-6.4zM926.4 745.6c8-4.8 12.8-11.2 16-17.6 1.6 6.4 8 12.8 16 17.6-8 4.8-12.8 11.2-16 17.6-1.6-6.4-8-12.8-16-17.6zM880 745.6c-59.2 0-60.8-60.8-60.8-60.8s-1.6 60.8-60.8 60.8v0c59.2 0 60.8 60.8 60.8 60.8s0-60.8 60.8-60.8v0zM816 684.8c0 1.6-1.6 59.2-59.2 59.2h-3.2v6.4h3.2c56 0 57.6 56 59.2 59.2h6.4c0-1.6 1.6-59.2 59.2-59.2h3.2v-6.4h-4.8c-56 0-57.6-56-59.2-59.2h-4.8zM779.2 745.6c25.6-8 35.2-28.8 40-43.2 4.8 16 16 35.2 40 43.2-25.6 8-35.2 28.8-40 43.2-4.8-14.4-16-35.2-40-43.2zM724.8 745.6c-28.8 0-30.4-30.4-30.4-30.4s-1.6 30.4-30.4 30.4v0c28.8 0 30.4 30.4 30.4 30.4s0-30.4 30.4-30.4v0zM691.2 715.2c0 1.6-1.6 27.2-27.2 27.2h-4.8v6.4h3.2c25.6 0 27.2 25.6 27.2 27.2h6.4c0-1.6 1.6-27.2 27.2-27.2h3.2v-6.4h-3.2c-25.6 0-27.2-25.6-27.2-27.2h-4.8zM678.4 745.6c8-4.8 12.8-11.2 16-17.6 1.6 6.4 8 12.8 16 17.6-8 4.8-12.8 11.2-16 17.6-3.2-6.4-6.4-12.8-16-17.6zM507.2 745.6c-59.2 0-60.8-60.8-60.8-60.8s-1.6 60.8-60.8 60.8v0c59.2 0 60.8 60.8 60.8 60.8s1.6-60.8 60.8-60.8v0zM443.2 684.8c0 1.6-1.6 59.2-59.2 59.2h-3.2v6.4h3.2c56 0 57.6 56 59.2 59.2h6.4c0-1.6 1.6-59.2 59.2-59.2h3.2v-6.4h-3.2c-56 0-57.6-56-59.2-59.2h-6.4zM406.4 745.6c25.6-8 35.2-28.8 40-43.2 4.8 16 16 35.2 40 43.2-25.6 8-35.2 28.8-40 43.2-4.8-14.4-14.4-35.2-40-43.2zM353.6 745.6c-28.8 0-30.4-30.4-30.4-30.4s-1.6 30.4-30.4 30.4v0c28.8 0 30.4 30.4 30.4 30.4s0-30.4 30.4-30.4v0zM324.8 715.2h-6.4c0 1.6-1.6 27.2-27.2 27.2h-3.2v6.4h3.2c25.6 0 27.2 25.6 27.2 27.2h6.4c0-1.6 1.6-27.2 27.2-27.2h3.2v-6.4h-3.2c-25.6 1.6-27.2-25.6-27.2-27.2zM307.2 745.6c8-4.8 12.8-11.2 16-17.6 1.6 6.4 8 12.8 16 17.6-8 4.8-12.8 11.2-16 17.6-3.2-6.4-8-12.8-16-17.6zM259.2 745.6c-59.2 0-60.8-60.8-60.8-60.8s-1.6 60.8-60.8 60.8v0c59.2 0 60.8 60.8 60.8 60.8s1.6-60.8 60.8-60.8v0zM195.2 684.8c0 1.6-1.6 59.2-59.2 59.2h-3.2v6.4h3.2c56 0 57.6 56 59.2 59.2h6.4c0-1.6 1.6-59.2 59.2-59.2h3.2v-6.4h-3.2c-56 0-57.6-56-59.2-59.2h-6.4zM158.4 745.6c25.6-8 35.2-28.8 40-43.2 4.8 16 16 35.2 40 43.2-25.6 8-35.2 28.8-40 43.2-4.8-14.4-16-35.2-40-43.2zM134.4 745.6c-59.2 0-60.8-60.8-60.8-60.8s-1.6 60.8-60.8 60.8v0c59.2 0 60.8 60.8 60.8 60.8s1.6-60.8 60.8-60.8v0zM70.4 684.8c0 1.6-1.6 59.2-59.2 59.2h-1.6v6.4h3.2c56 0 57.6 56 59.2 59.2h6.4c0-1.6 1.6-59.2 59.2-59.2h3.2v-6.4h-4.8c-56 0-57.6-56-59.2-59.2h-6.4zM33.6 745.6c25.6-8 35.2-28.8 40-43.2 4.8 16 16 35.2 40 43.2-25.6 8-35.2 28.8-40 43.2-3.2-14.4-14.4-35.2-40-43.2zM880 627.2c-59.2 0-60.8-60.8-60.8-60.8s-1.6 60.8-60.8 60.8v0c59.2 0 60.8 60.8 60.8 60.8s0-59.2 60.8-60.8v0zM816 566.4c0 1.6-1.6 59.2-59.2 59.2h-3.2v6.4h3.2c56 0 57.6 56 59.2 59.2h6.4c0-1.6 1.6-59.2 59.2-59.2h3.2v-6.4h-4.8c-56 0-57.6-56-59.2-59.2h-4.8zM779.2 627.2c25.6-8 35.2-28.8 40-43.2 4.8 16 16 35.2 40 43.2-25.6 8-35.2 28.8-40 43.2-4.8-14.4-16-35.2-40-43.2zM755.2 627.2c-59.2 0-60.8-60.8-60.8-60.8s-1.6 60.8-60.8 60.8v0c59.2 0 60.8 60.8 60.8 60.8s1.6-59.2 60.8-60.8v0zM691.2 566.4c0 1.6-1.6 59.2-59.2 59.2h-3.2v6.4h3.2c56 0 57.6 56 59.2 59.2h6.4c0-1.6 1.6-59.2 59.2-59.2h1.6v-6.4h-3.2c-56 0-57.6-56-59.2-59.2h-4.8zM654.4 627.2c25.6-8 35.2-28.8 40-43.2 4.8 16 16 35.2 40 43.2-25.6 8-35.2 28.8-40 43.2-4.8-14.4-14.4-35.2-40-43.2zM600 627.2c-28.8 0-30.4-30.4-30.4-30.4s-1.6 30.4-30.4 30.4v0c28.8 0 30.4 30.4 30.4 30.4s1.6-28.8 30.4-30.4v0zM566.4 596.8c0 1.6-1.6 27.2-27.2 27.2h-3.2v6.4h3.2c25.6 0 27.2 25.6 27.2 27.2h6.4c0-1.6 1.6-27.2 27.2-27.2h3.2v-6.4h-3.2c-25.6 0-27.2-25.6-27.2-27.2h-6.4zM555.2 627.2c8-4.8 12.8-11.2 16-17.6 1.6 6.4 8 12.8 16 17.6-8 4.8-12.8 11.2-16 17.6-3.2-6.4-8-12.8-16-17.6zM476.8 627.2c-28.8 0-30.4-30.4-30.4-30.4s-1.6 30.4-30.4 30.4v0c28.8 0 30.4 30.4 30.4 30.4s0-28.8 30.4-30.4v0zM448 596.8h-4.8c0 1.6-1.6 27.2-27.2 27.2h-3.2v6.4h3.2c25.6 0 27.2 25.6 27.2 27.2h6.4c0-1.6 1.6-27.2 27.2-27.2h3.2v-6.4h-3.2c-25.6 1.6-27.2-25.6-28.8-27.2zM430.4 627.2c8-4.8 12.8-11.2 16-17.6 1.6 6.4 8 12.8 16 17.6-8 4.8-12.8 11.2-16 17.6-3.2-6.4-8-12.8-16-17.6zM228.8 627.2c-28.8 0-30.4-30.4-30.4-30.4s-1.6 30.4-30.4 30.4v0c28.8 0 30.4 30.4 30.4 30.4s1.6-28.8 30.4-30.4v0zM201.6 596.8h-6.4c0 1.6-1.6 27.2-27.2 27.2h-3.2v6.4h3.2c25.6 0 27.2 25.6 27.2 27.2h6.4c0-1.6 1.6-27.2 27.2-27.2h3.2v-6.4h-3.2c-27.2 1.6-27.2-25.6-27.2-27.2zM182.4 627.2c8-4.8 12.8-11.2 16-17.6 1.6 6.4 8 12.8 16 17.6-8 4.8-12.8 11.2-16 17.6-3.2-6.4-8-12.8-16-17.6zM105.6 627.2c-28.8 0-30.4-30.4-30.4-30.4s-1.6 30.4-30.4 30.4v0c28.8 0 30.4 30.4 30.4 30.4s-1.6-28.8 30.4-30.4v0zM70.4 596.8c0 1.6-1.6 27.2-27.2 27.2h-3.2v6.4h3.2c25.6 0 27.2 25.6 27.2 27.2h6.4c0-1.6 1.6-27.2 27.2-27.2h3.2v-6.4h-3.2c-25.6 0-27.2-25.6-27.2-27.2h-6.4zM57.6 627.2c8-4.8 12.8-11.2 16-17.6 1.6 6.4 8 12.8 16 17.6-8 4.8-12.8 11.2-16 17.6-3.2-6.4-6.4-12.8-16-17.6zM972.8 508.8c-28.8 0-30.4-30.4-30.4-30.4s-1.6 30.4-30.4 30.4v0c28.8 0 30.4 30.4 30.4 30.4s1.6-28.8 30.4-30.4v0zM939.2 478.4c0 1.6-1.6 27.2-27.2 27.2h-3.2v6.4h3.2c25.6 0 27.2 25.6 27.2 27.2h6.4c0-1.6 1.6-27.2 27.2-27.2h3.2v-6.4h-3.2c-25.6 0-27.2-25.6-27.2-27.2h-6.4zM926.4 510.4c8-4.8 12.8-11.2 16-17.6 1.6 6.4 8 12.8 16 17.6-8 4.8-12.8 11.2-16 17.6-1.6-8-8-14.4-16-17.6zM849.6 508.8c-28.8 0-30.4-30.4-30.4-30.4s-1.6 30.4-30.4 30.4v0c28.8 0 30.4 30.4 30.4 30.4s0-28.8 30.4-30.4v0zM822.4 478.4h-6.4c0 1.6-1.6 27.2-27.2 27.2h-3.2v6.4h3.2c25.6 0 27.2 25.6 27.2 27.2h6.4c0-1.6 1.6-27.2 27.2-27.2h3.2v-6.4h-3.2c-27.2 1.6-27.2-25.6-27.2-27.2zM803.2 510.4c8-4.8 12.8-11.2 16-17.6 1.6 6.4 8 12.8 16 17.6-8 4.8-12.8 11.2-16 17.6-3.2-8-8-14.4-16-17.6zM600 508.8c-28.8 0-30.4-30.4-30.4-30.4s-1.6 30.4-30.4 30.4v0c28.8 0 30.4 30.4 30.4 30.4s1.6-28.8 30.4-30.4v0zM572.8 478.4h-6.4c0 1.6-1.6 27.2-27.2 27.2h-3.2v6.4h3.2c25.6 0 27.2 25.6 27.2 27.2h6.4c0-1.6 1.6-27.2 27.2-27.2h3.2v-6.4h-3.2c-25.6 1.6-27.2-25.6-27.2-27.2zM555.2 510.4c8-4.8 12.8-11.2 16-17.6 1.6 6.4 8 12.8 16 17.6-8 4.8-12.8 11.2-16 17.6-3.2-8-8-14.4-16-17.6zM476.8 508.8c-28.8 0-30.4-30.4-30.4-30.4s-1.6 30.4-30.4 30.4v0c28.8 0 30.4 30.4 30.4 30.4s0-28.8 30.4-30.4v0zM443.2 478.4c0 1.6-1.6 27.2-27.2 27.2h-3.2v6.4h3.2c25.6 0 27.2 25.6 27.2 27.2h6.4c0-1.6 1.6-27.2 27.2-27.2h3.2v-6.4h-3.2c-25.6 0-27.2-25.6-27.2-27.2h-6.4zM430.4 510.4c8-4.8 12.8-11.2 16-17.6 1.6 6.4 8 12.8 16 17.6-8 4.8-12.8 11.2-16 17.6-3.2-8-8-14.4-16-17.6zM353.6 508.8c-28.8 0-30.4-30.4-30.4-30.4s-1.6 30.4-30.4 30.4v0c28.8 0 30.4 30.4 30.4 30.4s0-28.8 30.4-30.4v0zM324.8 478.4h-6.4c0 1.6-1.6 27.2-27.2 27.2h-3.2v6.4h3.2c25.6 0 27.2 25.6 27.2 27.2h6.4c0-1.6 1.6-27.2 27.2-27.2h3.2v-6.4h-3.2c-25.6 1.6-27.2-25.6-27.2-27.2zM307.2 510.4c8-4.8 12.8-11.2 16-17.6 1.6 6.4 8 12.8 16 17.6-8 4.8-12.8 11.2-16 17.6-3.2-8-8-14.4-16-17.6zM259.2 508.8c-59.2 0-60.8-60.8-60.8-60.8s-1.6 60.8-60.8 60.8v0c59.2 0 60.8 60.8 60.8 60.8s1.6-59.2 60.8-60.8v0zM195.2 448c0 1.6-1.6 59.2-59.2 59.2h-3.2v6.4h3.2c56 0 57.6 56 59.2 59.2h6.4c0-1.6 1.6-59.2 59.2-59.2h3.2v-6.4h-3.2c-56 0-57.6-56-59.2-59.2h-6.4zM158.4 510.4c25.6-8 35.2-28.8 40-43.2 4.8 16 16 35.2 40 43.2-25.6 8-35.2 28.8-40 43.2-4.8-16-16-36.8-40-43.2zM1003.2 390.4c-59.2 0-60.8-60.8-60.8-60.8s-1.6 60.8-60.8 60.8v0c59.2 0 60.8 60.8 60.8 60.8s1.6-59.2 60.8-60.8v0zM939.2 329.6c0 1.6-1.6 59.2-59.2 59.2h-3.2v6.4h3.2c56 0 57.6 56 59.2 59.2h6.4c0-1.6 1.6-59.2 59.2-59.2h3.2v-6.4h-3.2c-56 0-57.6-56-59.2-59.2h-6.4zM902.4 392c25.6-8 35.2-28.8 40-43.2 4.8 16 16 35.2 40 43.2-25.6 8-35.2 28.8-40 43.2-4.8-16-16-36.8-40-43.2zM880 390.4c-59.2 0-60.8-60.8-60.8-60.8s-1.6 60.8-60.8 60.8v0c59.2 0 60.8 60.8 60.8 60.8s0-59.2 60.8-60.8v0zM816 329.6c0 1.6-1.6 59.2-59.2 59.2h-3.2v6.4h3.2c56 0 57.6 56 59.2 59.2h6.4c0-1.6 1.6-59.2 59.2-59.2h3.2v-6.4h-4.8c-56 0-57.6-56-59.2-59.2h-4.8zM779.2 392c25.6-8 35.2-28.8 40-43.2 4.8 16 16 35.2 40 43.2-25.6 8-35.2 28.8-40 43.2-4.8-16-16-36.8-40-43.2zM724.8 390.4c-28.8 0-30.4-30.4-30.4-30.4s-1.6 30.4-30.4 30.4v0c28.8 0 30.4 30.4 30.4 30.4s0-28.8 30.4-30.4v0zM697.6 360h-6.4c0 1.6-1.6 27.2-27.2 27.2h-3.2v6.4h3.2c25.6 0 27.2 25.6 27.2 27.2h6.4c0-1.6 1.6-27.2 27.2-27.2h3.2v-6.4h-3.2c-27.2 1.6-27.2-25.6-27.2-27.2zM678.4 392c8-4.8 12.8-11.2 16-17.6 1.6 6.4 8 12.8 16 17.6-8 4.8-12.8 11.2-16 17.6-3.2-6.4-6.4-14.4-16-17.6zM384 390.4c-59.2 0-60.8-60.8-60.8-60.8s-1.6 60.8-60.8 60.8v0c59.2 0 60.8 60.8 60.8 60.8s0-59.2 60.8-60.8v0zM320 329.6c0 1.6-1.6 59.2-59.2 59.2h-3.2v6.4h3.2c56 0 57.6 56 59.2 59.2h6.4c0-1.6 1.6-59.2 59.2-59.2h3.2v-6.4h-4.8c-56 0-57.6-56-59.2-59.2h-4.8zM281.6 392c25.6-8 35.2-28.8 40-43.2 4.8 16 16 35.2 40 43.2-25.6 8-35.2 28.8-40 43.2-4.8-16-14.4-36.8-40-43.2zM259.2 390.4c-59.2 0-60.8-60.8-60.8-60.8s-1.6 60.8-60.8 60.8v0c59.2 0 60.8 60.8 60.8 60.8s1.6-59.2 60.8-60.8v0zM195.2 329.6c0 1.6-1.6 59.2-59.2 59.2h-3.2v6.4h3.2c56 0 57.6 56 59.2 59.2h6.4c0-1.6 1.6-59.2 59.2-59.2h3.2v-6.4h-3.2c-56 0-57.6-56-59.2-59.2h-6.4zM158.4 392c25.6-8 35.2-28.8 40-43.2 4.8 16 16 35.2 40 43.2-25.6 8-35.2 28.8-40 43.2-4.8-16-16-36.8-40-43.2zM134.4 390.4c-59.2 0-60.8-60.8-60.8-60.8s-1.6 60.8-60.8 60.8v0c59.2 0 60.8 60.8 60.8 60.8s1.6-59.2 60.8-60.8v0zM70.4 329.6c0 1.6-1.6 59.2-59.2 59.2h-1.6v6.4h3.2c56 0 57.6 56 59.2 59.2h6.4c0-1.6 1.6-59.2 59.2-59.2h3.2v-6.4h-4.8c-56 0-57.6-56-59.2-59.2h-6.4zM33.6 392c25.6-8 35.2-28.8 40-43.2 4.8 16 16 35.2 40 43.2-25.6 8-35.2 28.8-40 43.2-3.2-16-14.4-36.8-40-43.2zM1003.2 272c-59.2 0-60.8-60.8-60.8-60.8s-1.6 60.8-60.8 60.8v0c59.2 0 60.8 60.8 60.8 60.8s1.6-59.2 60.8-60.8v0zM945.6 211.2h-6.4c0 1.6-1.6 59.2-59.2 59.2h-3.2v4.8h3.2c56 0 57.6 56 59.2 59.2h6.4c0-1.6 1.6-59.2 59.2-59.2h3.2v-6.4h-3.2c-57.6 1.6-59.2-54.4-59.2-57.6zM902.4 273.6c25.6-8 35.2-28.8 40-43.2 4.8 16 16 35.2 40 43.2-25.6 8-35.2 28.8-40 43.2-4.8-14.4-16-35.2-40-43.2zM724.8 272c-28.8 0-30.4-30.4-30.4-30.4s0 30.4-30.4 30.4v0c28.8 0 30.4 30.4 30.4 30.4s0-28.8 30.4-30.4v0zM691.2 241.6c0 1.6-1.6 27.2-27.2 27.2h-4.8v6.4h3.2c25.6 0 27.2 25.6 27.2 27.2h6.4c0-1.6 1.6-27.2 27.2-27.2h3.2v-6.4h-3.2c-25.6 0-27.2-25.6-27.2-27.2h-4.8zM678.4 273.6c8-4.8 12.8-11.2 16-17.6 1.6 6.4 8 12.8 16 17.6-8 4.8-12.8 11.2-16 17.6-3.2-6.4-6.4-14.4-16-17.6zM630.4 272c-59.2 0-60.8-60.8-60.8-60.8s0 60.8-60.8 60.8v0c59.2 0 60.8 60.8 60.8 60.8s1.6-59.2 60.8-60.8v0zM572.8 211.2h-6.4c0 1.6-1.6 59.2-59.2 59.2h-3.2v4.8h3.2c56 0 57.6 56 59.2 59.2h6.4c0-1.6 1.6-59.2 59.2-59.2h3.2v-6.4h-3.2c-56 1.6-59.2-54.4-59.2-57.6zM529.6 273.6c25.6-8 35.2-28.8 40-43.2 4.8 16 16 35.2 40 43.2-25.6 8-35.2 28.8-40 43.2-3.2-14.4-14.4-35.2-40-43.2zM476.8 272c-28.8 0-30.4-30.4-30.4-30.4s-1.6 30.4-30.4 30.4v0c28.8 0 30.4 30.4 30.4 30.4s0-28.8 30.4-30.4v0zM443.2 241.6c0 1.6-1.6 27.2-27.2 27.2h-3.2v6.4h3.2c25.6 0 27.2 25.6 27.2 27.2h6.4c0-1.6 1.6-27.2 27.2-27.2h3.2v-6.4h-3.2c-25.6 0-27.2-25.6-27.2-27.2h-6.4zM430.4 273.6c8-4.8 12.8-11.2 16-17.6 1.6 6.4 8 12.8 16 17.6-8 4.8-12.8 11.2-16 17.6-3.2-6.4-8-14.4-16-17.6zM353.6 272c-28.8 0-30.4-30.4-30.4-30.4s-1.6 30.4-30.4 30.4v0c28.8 0 30.4 30.4 30.4 30.4s0-28.8 30.4-30.4v0zM324.8 241.6h-6.4c0 1.6-1.6 27.2-27.2 27.2h-3.2v6.4h3.2c25.6 0 27.2 25.6 27.2 27.2h6.4c0-1.6 1.6-27.2 27.2-27.2h3.2v-6.4h-3.2c-25.6 1.6-27.2-25.6-27.2-27.2zM307.2 273.6c8-4.8 12.8-11.2 16-17.6 1.6 6.4 8 12.8 16 17.6-8 4.8-12.8 11.2-16 17.6-3.2-6.4-8-14.4-16-17.6zM134.4 272c-59.2 0-60.8-60.8-60.8-60.8s0 60.8-60.8 60.8v0c59.2 0 60.8 60.8 60.8 60.8s1.6-59.2 60.8-60.8v0zM76.8 211.2h-6.4c0 1.6-1.6 59.2-59.2 59.2h-3.2v4.8h3.2c56 0 57.6 56 59.2 59.2h6.4c0-1.6 1.6-59.2 59.2-59.2h3.2v-6.4h-4.8c-54.4 1.6-56-54.4-57.6-57.6zM33.6 273.6c25.6-8 35.2-28.8 40-43.2 4.8 16 16 35.2 40 43.2-25.6 8-35.2 28.8-40 43.2-3.2-14.4-14.4-35.2-40-43.2zM972.8 155.2c-28.8 0-30.4-30.4-30.4-30.4s-1.6 30.4-30.4 30.4v0c28.8 0 30.4 30.4 30.4 30.4s1.6-30.4 30.4-30.4v0zM939.2 123.2c0 1.6-1.6 27.2-27.2 27.2h-3.2v6.4h3.2c25.6 0 27.2 25.6 27.2 27.2h6.4c0-1.6 1.6-27.2 27.2-27.2h3.2v-6.4h-3.2c-25.6 0-27.2-25.6-27.2-27.2h-6.4zM926.4 155.2c8-4.8 12.8-11.2 16-17.6 1.6 6.4 8 12.8 16 17.6-8 4.8-12.8 11.2-16 17.6-1.6-6.4-8-14.4-16-17.6zM880 153.6c-59.2 0-60.8-60.8-60.8-60.8s-1.6 60.8-60.8 60.8v0c59.2 0 60.8 60.8 60.8 60.8s0-59.2 60.8-60.8v0zM816 92.8c0 1.6-1.6 59.2-59.2 59.2h-3.2v6.4h3.2c56 0 57.6 56 59.2 59.2h6.4c0-1.6 1.6-59.2 59.2-59.2h3.2v-6.4h-4.8c-56 0-57.6-56-59.2-59.2h-4.8zM779.2 155.2c25.6-8 35.2-28.8 40-43.2 4.8 16 16 35.2 40 43.2-25.6 8-35.2 28.8-40 43.2-4.8-14.4-16-35.2-40-43.2zM724.8 155.2c-28.8 0-30.4-30.4-30.4-30.4s-1.6 30.4-30.4 30.4v0c28.8 0 30.4 30.4 30.4 30.4s0-30.4 30.4-30.4v0zM691.2 123.2c0 1.6-1.6 27.2-27.2 27.2h-4.8v6.4h3.2c25.6 0 27.2 25.6 27.2 27.2h6.4c0-1.6 1.6-27.2 27.2-27.2h3.2v-6.4h-3.2c-25.6 0-27.2-25.6-27.2-27.2h-4.8zM678.4 155.2c8-4.8 12.8-11.2 16-17.6 1.6 6.4 8 12.8 16 17.6-8 4.8-12.8 11.2-16 17.6-3.2-6.4-6.4-14.4-16-17.6zM507.2 153.6c-59.2 0-60.8-60.8-60.8-60.8s-1.6 60.8-60.8 60.8v0c59.2 0 60.8 60.8 60.8 60.8s1.6-59.2 60.8-60.8v0zM443.2 92.8c0 1.6-1.6 59.2-59.2 59.2h-3.2v6.4h3.2c56 0 57.6 56 59.2 59.2h6.4c0-1.6 1.6-59.2 59.2-59.2h3.2v-6.4h-3.2c-56 0-57.6-56-59.2-59.2h-6.4zM406.4 155.2c25.6-8 35.2-28.8 40-43.2 4.8 16 16 35.2 40 43.2-25.6 8-35.2 28.8-40 43.2-4.8-14.4-14.4-35.2-40-43.2zM384 153.6c-59.2 0-60.8-60.8-60.8-60.8s-1.6 60.8-60.8 60.8v0c59.2 0 60.8 60.8 60.8 60.8s0-59.2 60.8-60.8v0zM320 92.8c0 1.6-1.6 59.2-59.2 59.2h-3.2v6.4h3.2c56 0 57.6 56 59.2 59.2h6.4c0-1.6 1.6-59.2 59.2-59.2h3.2v-6.4h-4.8c-56 0-57.6-56-59.2-59.2h-4.8zM281.6 155.2c25.6-8 35.2-28.8 40-43.2 4.8 16 16 35.2 40 43.2-25.6 8-35.2 28.8-40 43.2-4.8-14.4-14.4-35.2-40-43.2zM228.8 155.2c-28.8 0-30.4-30.4-30.4-30.4s-1.6 30.4-30.4 30.4v0c28.8 0 30.4 30.4 30.4 30.4s1.6-30.4 30.4-30.4v0zM195.2 123.2c0 1.6-1.6 27.2-27.2 27.2h-3.2v6.4h3.2c25.6 0 27.2 25.6 27.2 27.2h6.4c0-1.6 1.6-27.2 27.2-27.2h3.2v-6.4h-3.2c-25.6 0-27.2-25.6-27.2-27.2h-6.4zM182.4 155.2c8-4.8 12.8-11.2 16-17.6 1.6 6.4 8 12.8 16 17.6-8 4.8-12.8 11.2-16 17.6-3.2-6.4-8-14.4-16-17.6zM134.4 153.6c-59.2 0-60.8-60.8-60.8-60.8s-1.6 60.8-60.8 60.8v0c59.2 0 60.8 60.8 60.8 60.8s1.6-59.2 60.8-60.8v0zM70.4 92.8c0 1.6-1.6 59.2-59.2 59.2h-1.6v6.4h3.2c56 0 57.6 56 59.2 59.2h6.4c0-1.6 1.6-59.2 59.2-59.2h3.2v-6.4h-4.8c-56 0-57.6-56-59.2-59.2h-6.4zM33.6 155.2c25.6-8 35.2-28.8 40-43.2 4.8 16 16 35.2 40 43.2-25.6 8-35.2 28.8-40 43.2-3.2-14.4-14.4-35.2-40-43.2zM880 35.2c-59.2 0-60.8-60.8-60.8-60.8s-1.6 60.8-60.8 60.8v0c59.2 0 60.8 60.8 60.8 60.8s0-59.2 60.8-60.8v0zM816-25.6c0 1.6-1.6 59.2-59.2 59.2h-3.2v6.4h3.2c56 0 57.6 56 59.2 59.2h6.4c0-1.6 1.6-59.2 59.2-59.2h3.2v-6.4h-4.8c-56 0-57.6-56-59.2-59.2h-4.8zM779.2 36.8c25.6-8 35.2-28.8 40-43.2 4.8 16 16 35.2 40 43.2-25.6 8-35.2 28.8-40 43.2-4.8-14.4-16-35.2-40-43.2zM755.2 35.2c-59.2 0-60.8-60.8-60.8-60.8s-1.6 60.8-60.8 60.8v0c59.2 0 60.8 60.8 60.8 60.8s1.6-59.2 60.8-60.8v0zM691.2-25.6c0 1.6-1.6 59.2-59.2 59.2h-3.2v6.4h3.2c56 0 57.6 56 59.2 59.2h6.4c0-1.6 1.6-59.2 59.2-59.2h1.6v-6.4h-3.2c-56 0-57.6-56-59.2-59.2h-4.8zM654.4 36.8c25.6-8 35.2-28.8 40-43.2 4.8 16 16 35.2 40 43.2-25.6 8-35.2 28.8-40 43.2-4.8-14.4-14.4-35.2-40-43.2zM630.4 35.2c-59.2 0-60.8-60.8-60.8-60.8s-1.6 60.8-60.8 60.8v0c59.2 0 60.8 60.8 60.8 60.8s1.6-59.2 60.8-60.8v0zM566.4-25.6c0 1.6-1.6 59.2-59.2 59.2h-3.2v6.4h3.2c56 0 57.6 56 59.2 59.2h6.4c0-1.6 1.6-59.2 59.2-59.2h3.2v-6.4h-3.2c-56 0-57.6-56-59.2-59.2h-6.4zM529.6 36.8c25.6-8 35.2-28.8 40-43.2 4.8 16 16 35.2 40 43.2-25.6 8-35.2 28.8-40 43.2-3.2-14.4-14.4-35.2-40-43.2zM476.8 36.8c-28.8 0-30.4-30.4-30.4-30.4s-1.6 30.4-30.4 30.4v0c28.8 0 30.4 30.4 30.4 30.4s0-30.4 30.4-30.4v0zM448 4.8h-4.8c0 1.6-1.6 27.2-27.2 27.2h-3.2v6.4h3.2c25.6 0 27.2 25.6 27.2 27.2h6.4c0-1.6 1.6-27.2 27.2-27.2h3.2v-6.4h-3.2c-25.6 1.6-27.2-25.6-28.8-27.2zM430.4 36.8c8-4.8 12.8-11.2 16-17.6 1.6 6.4 8 12.8 16 17.6-8 4.8-12.8 11.2-16 17.6-3.2-6.4-8-14.4-16-17.6zM259.2 35.2c-59.2 0-60.8-60.8-60.8-60.8s-1.6 60.8-60.8 60.8v0c59.2 0 60.8 60.8 60.8 60.8s1.6-59.2 60.8-60.8v0zM195.2-25.6c0 1.6-1.6 59.2-59.2 59.2h-3.2v6.4h3.2c56 0 57.6 56 59.2 59.2h6.4c0-1.6 1.6-59.2 59.2-59.2h3.2v-6.4h-3.2c-56 0-57.6-56-59.2-59.2h-6.4zM158.4 36.8c25.6-8 35.2-28.8 40-43.2 4.8 16 16 35.2 40 43.2-25.6 8-35.2 28.8-40 43.2-4.8-14.4-16-35.2-40-43.2zM105.6 36.8c-28.8 0-30.4-30.4-30.4-30.4s-1.6 30.4-30.4 30.4v0c28.8 0 30.4 30.4 30.4 30.4s-1.6-30.4 30.4-30.4v0zM70.4 4.8c0 1.6-1.6 27.2-27.2 27.2h-3.2v6.4h3.2c25.6 0 27.2 25.6 27.2 27.2h6.4c0-1.6 1.6-27.2 27.2-27.2h3.2v-6.4h-3.2c-25.6 0-27.2-25.6-27.2-27.2h-6.4zM57.6 36.8c8-4.8 12.8-11.2 16-17.6 1.6 6.4 8 12.8 16 17.6-8 4.8-12.8 11.2-16 17.6-3.2-6.4-6.4-14.4-16-17.6z" />
<glyph unicode="&#xe930;" glyph-name="point" d="M646.4 448c0-74.227-60.173-134.4-134.4-134.4s-134.4 60.173-134.4 134.4c0 74.227 60.173 134.4 134.4 134.4s134.4-60.173 134.4-134.4z" />
<glyph unicode="&#xe931;" glyph-name="check" d="M382.4 289.6l-169.6 171.2-56-57.6 225.6-225.6 484.8 484.8-56 56z" />
<glyph unicode="&#xe934;" glyph-name="passcodeB" d="M952 448c0-243.008-196.992-440-440-440s-440 196.992-440 440c0 243.008 196.992 440 440 440s440-196.992 440-440z" />
<glyph unicode="&#xe936;" glyph-name="RedPoint" d="M793.6 448c0-155.523-126.077-281.6-281.6-281.6s-281.6 126.077-281.6 281.6c0 155.523 126.077 281.6 281.6 281.6s281.6-126.077 281.6-281.6z" />
<glyph unicode="&#xe937;" glyph-name="x2" d="M784 696l-24 24-248-248-248 248-24-24 248-248-248-248 24-24 248 248 248-248 24 24-248 248z" />
</font>
</defs>
</svg>
