<?xml version="1.0" encoding="utf-8"?>
<!-- Generator: Adobe Illustrator 19.2.1, SVG Export Plug-In . SVG Version: 6.00 Build 0)  -->
<svg version="1.1" id="Layer_1" xmlns="http://www.w3.org/2000/svg" xmlns:xlink="http://www.w3.org/1999/xlink" x="0px" y="0px"
	 viewBox="0 0 64 64" style="enable-background:new 0 0 64 64;" xml:space="preserve">
<style type="text/css">
	.st0{fill:#565656;}
</style>
<g>
	<path class="st0" d="M55.4,22.3l-8.7,0.1L44.8,4.5c-0.1-1.3-0.9-2.4-2.1-3c-1.2-0.6-2.5-0.6-3.6,0.1L2.4,22.8l0,0
		C2.3,22.9,2.2,23,2.2,23c-0.2,0.2-0.3,0.5-0.3,0.8l3.9,37.9c0.1,0.5,0.5,1,1.1,1l51.9-0.4c0.1,0,0.2,0,0.4,0
		c0.9-0.1,1.8-0.5,2.4-1.2c0.7-0.8,1.1-1.9,0.9-2.9l-3.3-32.5C59,23.7,57.3,22.3,55.4,22.3z M29.6,22.5l14.1-8.2l0.8,8L29.6,22.5z
		 M40.3,13.9l-14.9,8.7l-8.2,0.1l21.6-12.5c0.4-0.2,0.7-0.1,0.8,0s0.4,0.3,0.5,0.7L40.3,13.9L40.3,13.9z M40.2,3.4
		c0.5-0.3,1.1-0.3,1.6,0s0.8,0.7,0.9,1.3l0.8,7.3l-1.2,0.7l-0.2-2.2c-0.1-1-0.7-1.9-1.6-2.3c-0.9-0.5-2-0.4-2.8,0.1L12.9,22.6H7
		L40.2,3.4z M60.4,58.4c0,0.5-0.1,0.9-0.4,1.3s-0.8,0.6-1.2,0.6l-51,0.3L4.1,24.8l51.3-0.4c0.9,0,1.6,0.6,1.7,1.5L60.4,58.4z"/>
	<path class="st0" d="M51.9,38.4c-2.1,0.2-3.6,2.2-3.4,4.5c0.2,2.3,2.1,3.9,4.2,3.7c2.1-0.2,3.6-2.2,3.4-4.5
		C55.9,39.9,54,38.2,51.9,38.4z M52.5,44.5c-0.9,0.1-1.8-0.7-1.9-1.8c-0.1-1.1,0.6-2.1,1.5-2.2c0.9-0.1,1.8,0.7,1.9,1.8
		C54.1,43.5,53.4,44.4,52.5,44.5z"/>
</g>
</svg>
