<?xml version="1.0" encoding="utf-8"?>
<!-- Generator: Adobe Illustrator 19.2.1, SVG Export Plug-In . SVG Version: 6.00 Build 0)  -->
<svg version="1.1" id="Layer_1" xmlns="http://www.w3.org/2000/svg" xmlns:xlink="http://www.w3.org/1999/xlink" x="0px" y="0px"
	 viewBox="0 0 64 64" style="enable-background:new 0 0 64 64;" xml:space="preserve">
<style type="text/css">
	.st0{fill:#383838;}
</style>
<g>
	<path class="st0" d="M0,13.9v36.3h64V13.9H0z M62,48H2V16h60V48z"/>
	<path class="st0" d="M9,44.8v1.1h46v-1.1c0-2.4,1.8-4.3,4-4.3h1v-17h-1c-2.2,0-4-1.9-4-4.3v-1.1H9v1.1c0,2.4-1.8,4.3-4,4.3H4v17.1
		h1C7.2,40.5,9,42.4,9,44.8z M6,25.5c2.5-0.5,4.5-2.6,4.9-5.2h42.2c0.4,2.7,2.4,4.8,4.9,5.2v13c-2.5,0.5-4.5,2.6-4.9,5.2H10.9
		C10.5,41,8.5,38.9,6,38.5C6,38.5,6,25.5,6,25.5z"/>
	<path class="st0" d="M32,41.6c5,0,9-4.3,9-9.6s-4-9.6-9-9.6s-9,4.3-9,9.6S27,41.6,32,41.6z M32,24.5c3.9,0,7,3.3,7,7.5
		s-3.1,7.5-7,7.5s-7-3.3-7-7.5S28.1,24.5,32,24.5z"/>
</g>
</svg>
