<?xml version="1.0" encoding="utf-8"?>
<!-- Generator: Adobe Illustrator 19.2.1, SVG Export Plug-In . SVG Version: 6.00 Build 0)  -->
<svg version="1.1" id="Layer_1" xmlns="http://www.w3.org/2000/svg" xmlns:xlink="http://www.w3.org/1999/xlink" x="0px" y="0px"
	 viewBox="0 0 64 64" style="enable-background:new 0 0 64 64;" xml:space="preserve">
<style type="text/css">
	.st0{fill:#3A3A3A;}
</style>
<path class="st0" d="M62.8,29.3L32,0.6L1.2,29.3c-0.4,0.4-0.5,1.1-0.1,1.5s1.1,0.5,1.5,0.1l3.6-3.3v35.8h17.2h17.2h17.2V27.5
	l3.6,3.3c0.2,0.2,0.5,0.3,0.7,0.3c0.3,0,0.6-0.1,0.8-0.3C63.3,30.3,63.3,29.7,62.8,29.3z M25.6,61.2V44c0-3.6,2.9-6.4,6.4-6.4
	s6.4,2.9,6.4,6.4v17.2H25.6z M55.6,61.2h-15V44c0-4.7-3.9-8.6-8.6-8.6s-8.6,3.9-8.6,8.6v17.2h-15V25.5L32,3.6l23.6,22V61.2z"/>
</svg>
